<svg version="1.1" id="Layer_1" xmlns="http://www.w3.org/2000/svg" xmlns:xlink="http://www.w3.org/1999/xlink" x="0px" y="0px" viewBox="0 0 512 512" style="enable-background:new 0 0 512 512;" xml:space="preserve">
<style type="text/css">
	.st0{fill:#FF0000;}
</style>
<g>
<g>
<g>
<path class="st0" d="M288.7727,379.6177c-31.0821-2.4047-44.1417-17.8159-68.517-32.6133
				c-10.8615,56.9841-23.678,112.0556-53.9793,149.6197c-8.8183,10.9314-26.6251,5.4308-27.3315-8.5965
				c-4.577-90.7884,26.777-162.8616,42.1821-238.8844c-29.2561-49.2489,3.5182-148.377,65.2267-123.9501
				c75.9469,30.0324-65.7538,183.1232,29.3731,202.244c99.312,19.9639,139.8549-172.3209,78.2635-234.8649
				C265.005,2.2744,94.9703,90.5199,115.879,219.7852c3.9603,24.5667,24.5773,35.8323,21.9539,60.118
				c-1.63,15.0815-17.1885,23.7737-30.9302,17.3495c-39.393-18.4189-51.6065-58.7523-49.7335-110.0808
				c3.5243-98.0223,88.0768-166.6563,172.8845-176.1536C337.3106-0.987,437.9776,50.4022,451.8727,151.291
				C467.5057,265.1574,403.4518,388.471,288.7727,379.6177L288.7727,379.6177z" id="id_101" style="fill: rgb(0, 0, 0);"></path>
</g>
</g>
</g>
</svg>